<svg viewBox="0 0 1440 470" xmlns="http://www.w3.org/2000/svg" xmlns:xlink="http://www.w3.org/1999/xlink"><path fill="rgba(255, 250, 247, 1)" d="M 0 50 C 1.8 50 -10.8 469 -9 469 L -9 469 L -9 0 L 0 0 Z" stroke-width="0"></path> <path fill="rgba(255, 250, 247, 1)" d="M -10 469 C -3.8 469 14.8 469 21 469 L 21 469 L 21 0 L -10 0 Z" stroke-width="0"></path> <path fill="rgba(255, 250, 247, 1)" d="M 20 469 C 26.2 469 44.8 469 51 469 L 51 469 L 51 0 L 20 0 Z" stroke-width="0"></path><path fill="rgba(255, 250, 247, 1)" d="M 50 469 C 56.2 469 74.8 469 81 469 L 81 469 L 81 0 L 50 0 Z" stroke-width="0"></path><path fill="rgba(255, 250, 247, 1)" d="M 80 469 C 86.2 469 104.8 469 111 469 L 111 469 L 111 0 L 80 0 Z" stroke-width="0"></path><path fill="rgba(255, 250, 247, 1)" d="M 110 469 C 116.2 469 134.8 469 141 469 L 141 469 L 141 0 L 110 0 Z" stroke-width="0"></path><path fill="rgba(255, 250, 247, 1)" d="M 140 469 C 146.2 469 164.8 469 171 469 L 171 469 L 171 0 L 140 0 Z" stroke-width="0"></path><path fill="rgba(255, 250, 247, 1)" d="M 170 469 C 424 469 1186 0 1440 0 L 1440 0 L 1440 0 L 170 0 Z" stroke-width="0"></path></svg>

