<svg xmlns="http://www.w3.org/2000/svg" viewBox="0 0 486 712" xml:space="preserve"><path fill="#EDEAEA" d="m308.2.9-16.8 88.8h-88.7zM218.2.9l-16.8 88.8h-88.7zM396.9.9l-16.7 88.8h-88.8zM485.7.9l-16.8 88.8h-88.7zM275.9 178.5l-16.8 88.7h-88.7zM185.9 178.5l-16.7 88.7H80.4zM364.7 178.5l-16.8 88.7h-88.8zM453.4 178.5l-16.7 88.7h-88.8zM242.4 356l-16.8 88.8h-88.7z"></path><path fill="#EDEAEA" d="m153.6 356-16.7 88.8H48.1zM332.4 356l-16.8 88.8h-88.7zM421.1 356l-16.7 88.8h-88.8zM210.1 533.5l-16.7 88.8h-88.8zM121.3 533.5l-16.7 88.8H15.8zM300.1 533.5l-16.8 88.8h-88.7z"></path><path fill="#EDEAEA" d="m388.9 533.5-16.8 88.8h-88.8z"></path></svg>